<?xml version="1.0" standalone="no"?>
<!DOCTYPE svg PUBLIC "-//W3C//DTD SVG 20010904//EN"
 "http://www.w3.org/TR/2001/REC-SVG-20010904/DTD/svg10.dtd">
<svg version="1.0" xmlns="http://www.w3.org/2000/svg"
 width="700.000000pt" height="700.000000pt" viewBox="0 0 700.000000 700.000000"
 preserveAspectRatio="xMidYMid meet">
<metadata>
Created by potrace 1.11, written by Peter Selinger 2001-2013
</metadata>
<g transform="translate(0.000000,700.000000) scale(0.100000,-0.100000)"
fill="#000000" stroke="none">
<path d="M1905 6990 c-276 -43 -520 -223 -645 -475 -65 -131 -80 -194 -87
-350 -4 -108 -2 -145 16 -223 22 -102 77 -229 139 -318 47 -70 158 -179 222
-219 25 -15 48 -33 52 -39 4 -6 8 -846 8 -1866 0 -1020 -4 -1860 -8 -1866 -4
-6 -27 -24 -52 -39 -64 -40 -175 -149 -222 -219 -62 -89 -117 -216 -139 -318
-18 -78 -20 -115 -16 -223 7 -156 22 -219 87 -350 215 -433 742 -608 1175
-390 239 121 408 338 461 594 18 89 20 268 4 349 -45 224 -179 429 -360 552
l-62 42 5 137 c6 162 26 238 90 333 54 80 113 125 262 198 151 74 263 116 645
245 568 191 771 278 1000 426 461 298 753 730 858 1269 32 162 43 249 50 403
l7 142 58 39 c144 95 272 261 329 426 107 310 36 654 -185 887 -182 191 -376
274 -643 274 -245 0 -442 -81 -613 -252 -171 -171 -252 -368 -252 -613 0 -159
24 -264 94 -401 65 -131 164 -243 285 -323 l52 -35 0 -74 c0 -169 -38 -387
-90 -515 -69 -169 -229 -372 -367 -466 -149 -101 -434 -224 -785 -338 -408
-132 -654 -221 -759 -275 l-39 -19 0 1134 0 1135 61 42 c146 99 261 250 323
427 36 100 47 169 47 289 0 222 -61 395 -198 558 -115 137 -282 243 -448 286
-92 23 -270 33 -360 19z m318 -467 c277 -130 342 -490 128 -704 -86 -86 -168
-122 -286 -127 -111 -5 -181 13 -264 69 -258 172 -261 549 -6 724 85 59 143
75 260 72 89 -2 108 -6 168 -34z m2842 -558 c249 -65 384 -316 307 -571 -13
-40 -56 -110 -96 -153 -37 -40 -126 -99 -170 -113 -271 -82 -533 75 -578 348
-51 304 238 567 537 489z m-2904 -4669 c78 -24 130 -56 191 -117 170 -169 169
-440 -1 -610 -85 -85 -167 -122 -284 -127 -141 -7 -238 29 -333 125 -227 226
-142 607 160 719 72 27 195 32 267 10z"/>
</g>
</svg>
